<svg id="Capa_1" data-name="Capa 1" xmlns="http://www.w3.org/2000/svg" xmlns:xlink="http://www.w3.org/1999/xlink" viewBox="0 0 500 184.22"><defs><style>.cls-1{fill:#fff;}.cls-2{fill:url(#Degradado_sin_nombre_7);}.cls-3{fill:url(#Degradado_sin_nombre_7-2);}.cls-4{fill:url(#Degradado_sin_nombre_7-3);}.cls-5{fill:url(#Degradado_sin_nombre_7-4);}.cls-6{fill:url(#Degradado_sin_nombre_7-5);}.cls-7{fill:url(#Degradado_sin_nombre_7-6);}.cls-8{fill:url(#Degradado_sin_nombre_7-7);}.cls-10,.cls-11,.cls-12,.cls-13,.cls-9{opacity:0.5;}.cls-9{fill:url(#Degradado_sin_nombre_5);}.cls-10{fill:url(#Degradado_sin_nombre_5-2);}.cls-11{fill:url(#Degradado_sin_nombre_5-3);}.cls-12{fill:url(#Degradado_sin_nombre_5-4);}.cls-13{fill:url(#Degradado_sin_nombre_5-5);}.cls-14,.cls-15,.cls-16,.cls-17,.cls-18,.cls-19,.cls-20,.cls-21{opacity:0.7;}.cls-14{fill:url(#Degradado_sin_nombre_4);}.cls-15{fill:url(#Degradado_sin_nombre_4-2);}.cls-16{fill:url(#Degradado_sin_nombre_3);}.cls-17{fill:url(#Degradado_sin_nombre_3-2);}.cls-18{fill:url(#Degradado_sin_nombre_2);}.cls-19{fill:url(#Degradado_sin_nombre_2-2);}.cls-20{fill:url(#Degradado_sin_nombre_2-3);}.cls-21{fill:url(#Degradado_sin_nombre_2-4);}</style><linearGradient id="Degradado_sin_nombre_7" x1="149.12" y1="267.51" x2="149.12" y2="233" gradientUnits="userSpaceOnUse"><stop offset="0" stop-color="#e4e1df"/><stop offset="0.24" stop-color="#dbd6d4"/><stop offset="0.64" stop-color="#d0c8c7"/><stop offset="1" stop-color="#ccc3c3"/></linearGradient><linearGradient id="Degradado_sin_nombre_7-2" x1="192.06" y1="269.13" x2="192.06" y2="239.2" xlink:href="#Degradado_sin_nombre_7"/><linearGradient id="Degradado_sin_nombre_7-3" x1="229.86" y1="268.12" x2="229.86" y2="239.2" xlink:href="#Degradado_sin_nombre_7"/><linearGradient id="Degradado_sin_nombre_7-4" x1="274.41" y1="267.51" x2="274.41" y2="239.2" xlink:href="#Degradado_sin_nombre_7"/><linearGradient id="Degradado_sin_nombre_7-5" x1="308.5" y1="267.51" x2="308.5" y2="239.2" xlink:href="#Degradado_sin_nombre_7"/><linearGradient id="Degradado_sin_nombre_7-6" x1="338.45" y1="269.13" x2="338.45" y2="237.58" xlink:href="#Degradado_sin_nombre_7"/><linearGradient id="Degradado_sin_nombre_7-7" x1="378.42" y1="267.51" x2="378.42" y2="239.2" xlink:href="#Degradado_sin_nombre_7"/><linearGradient id="Degradado_sin_nombre_5" x1="264.25" y1="203.94" x2="243.52" y2="168.04" gradientUnits="userSpaceOnUse"><stop offset="0" stop-color="#e4e1df"/><stop offset="0.13" stop-color="#dfdbda"/><stop offset="0.63" stop-color="#d1c9c9"/><stop offset="1" stop-color="#ccc3c3"/></linearGradient><linearGradient id="Degradado_sin_nombre_5-2" x1="273.66" y1="198.47" x2="255.9" y2="167.72" xlink:href="#Degradado_sin_nombre_5"/><linearGradient id="Degradado_sin_nombre_5-3" x1="255.82" y1="208.79" x2="236.46" y2="175.25" xlink:href="#Degradado_sin_nombre_5"/><linearGradient id="Degradado_sin_nombre_5-4" x1="249.18" y1="212.52" x2="232.69" y2="183.96" xlink:href="#Degradado_sin_nombre_5"/><linearGradient id="Degradado_sin_nombre_5-5" x1="282.14" y1="193.42" x2="270.01" y2="172.4" xlink:href="#Degradado_sin_nombre_5"/><linearGradient id="Degradado_sin_nombre_4" x1="308.77" y1="233.07" x2="325.1" y2="227.13" gradientUnits="userSpaceOnUse"><stop offset="0" stop-color="#e4e1df"/><stop offset="0.17" stop-color="#ded9d8"/><stop offset="0.64" stop-color="#d1c9c8"/><stop offset="1" stop-color="#ccc3c3"/></linearGradient><linearGradient id="Degradado_sin_nombre_4-2" x1="304.42" y1="235.69" x2="297.35" y2="223.46" xlink:href="#Degradado_sin_nombre_4"/><linearGradient id="Degradado_sin_nombre_3" x1="224.91" y1="222.27" x2="238.31" y2="222.27" gradientUnits="userSpaceOnUse"><stop offset="0" stop-color="#b5a9a9"/><stop offset="0.04" stop-color="#b7adad" stop-opacity="0.98"/><stop offset="0.49" stop-color="#c9c7c7" stop-opacity="0.84"/><stop offset="1" stop-color="#cfcfcf" stop-opacity="0.8"/></linearGradient><linearGradient id="Degradado_sin_nombre_3-2" x1="223.75" y1="220" x2="232.77" y2="220" xlink:href="#Degradado_sin_nombre_3"/><linearGradient id="Degradado_sin_nombre_2" x1="283.72" y1="215.44" x2="283.72" y2="196.8" gradientUnits="userSpaceOnUse"><stop offset="0" stop-color="#e4e1df"/><stop offset="0.02" stop-color="#e3e0de"/><stop offset="0.29" stop-color="#d6d0cf"/><stop offset="0.59" stop-color="#cec6c6"/><stop offset="1" stop-color="#ccc3c3"/></linearGradient><linearGradient id="Degradado_sin_nombre_2-2" x1="298.69" y1="229.15" x2="298.69" y2="210.21" xlink:href="#Degradado_sin_nombre_2"/><linearGradient id="Degradado_sin_nombre_2-3" x1="266.37" y1="225.96" x2="266.37" y2="211.52" xlink:href="#Degradado_sin_nombre_2"/><linearGradient id="Degradado_sin_nombre_2-4" x1="249.2" y1="220.34" x2="249.2" y2="202.25" xlink:href="#Degradado_sin_nombre_2"/></defs><title>Logo</title><ellipse class="cls-1" cx="250" cy="92.11" rx="250" ry="92.11"/><path class="cls-2" d="M159.92,249.59a8.07,8.07,0,0,1,6,8.34,9.23,9.23,0,0,1-1.61,5.38,8.43,8.43,0,0,1-4.28,3.25,24.23,24.23,0,0,1-7.68.95h-20v-.81a2.41,2.41,0,0,0,1.29-.68,2.54,2.54,0,0,0,.33-1.49V236a2.6,2.6,0,0,0-.33-1.5,2.22,2.22,0,0,0-1.29-.67V233h20.49a21.68,21.68,0,0,1,5,.48,9.64,9.64,0,0,1,3.48,1.59,8.32,8.32,0,0,1,3.48,7.18Q164.78,247.23,159.92,249.59Zm-22-1.7h13.24a36,36,0,0,0,4.21-.18,10,10,0,0,0,2.58-.65,4.88,4.88,0,0,0,2.27-1.87,5.76,5.76,0,0,0-.63-6.73,6.11,6.11,0,0,0-3-1.7,24.67,24.67,0,0,0-5.68-.47h-13Zm0,16.33h13.79a36,36,0,0,0,4.4-.19,9.24,9.24,0,0,0,2.67-.74,5.22,5.22,0,0,0,2.35-2.13,6.21,6.21,0,0,0,.85-3.28,6.29,6.29,0,0,0-1.49-4.22,6.05,6.05,0,0,0-3.14-2,24.22,24.22,0,0,0-5.89-.52H137.9Z" transform="translate(0 -123.86)"/><path class="cls-3" d="M184.64,264.75h17.19a2.61,2.61,0,0,0,1.5-.32,2.35,2.35,0,0,0,.69-1.29h.68v6H204a2.35,2.35,0,0,0-.69-1.29,2.6,2.6,0,0,0-1.5-.33h-22.4v-.68a2.22,2.22,0,0,0,1.28-.7,2.53,2.53,0,0,0,.33-1.48v-22.6a2.52,2.52,0,0,0-.33-1.49,2.27,2.27,0,0,0-1.28-.68v-.68h6.82v.68a2.31,2.31,0,0,0-1.28.68,2.52,2.52,0,0,0-.33,1.49Z" transform="translate(0 -123.86)"/><path class="cls-4" d="M220.66,242.05v14.54a21.64,21.64,0,0,0,.33,4.64,3.84,3.84,0,0,0,1.43,2.13c1.51,1.22,4.1,1.82,7.75,1.82,4.05,0,6.78-.74,8.21-2.22a4.2,4.2,0,0,0,1-2.06,24.68,24.68,0,0,0,.25-4.31V242.05a2.64,2.64,0,0,0-.32-1.48,2.35,2.35,0,0,0-1.29-.69v-.68h6.22v.68a2.34,2.34,0,0,0-1.29.68,2.61,2.61,0,0,0-.32,1.49v15.27a15.89,15.89,0,0,1-.66,5.49,7.33,7.33,0,0,1-4.05,4,20.63,20.63,0,0,1-8.1,1.29q-7.41,0-10.37-2.76a6.54,6.54,0,0,1-1.93-3,19.52,19.52,0,0,1-.49-5.08V242.05a2.52,2.52,0,0,0-.33-1.49,2.27,2.27,0,0,0-1.28-.68v-.68h6.82v.68a2.31,2.31,0,0,0-1.28.69A2.55,2.55,0,0,0,220.66,242.05Z" transform="translate(0 -123.86)"/><path class="cls-5" d="M274.11,267.51l-12-23.87v21a2.62,2.62,0,0,0,.32,1.48,2.29,2.29,0,0,0,1.29.7v.68h-6.22v-.68a2.22,2.22,0,0,0,1.28-.7,2.53,2.53,0,0,0,.33-1.48v-22.6a2.52,2.52,0,0,0-.33-1.49,2.27,2.27,0,0,0-1.28-.68v-.68h8.56v.68q-1.26.38-1.26,1.11a5.9,5.9,0,0,0,.63,1.59l8.92,18.08,9-18.08a5.15,5.15,0,0,0,.61-1.59q0-.74-1.26-1.11v-.68h8.63v.68a2.35,2.35,0,0,0-1.28.69,2.55,2.55,0,0,0-.33,1.48v22.6a2.53,2.53,0,0,0,.33,1.48,2.29,2.29,0,0,0,1.28.7v.68h-6.82v-.68a2.29,2.29,0,0,0,1.29-.7,2.62,2.62,0,0,0,.32-1.48v-21Z" transform="translate(0 -123.86)"/><path class="cls-6" d="M306.7,264.65v-22.6a2.52,2.52,0,0,0-.33-1.49,2.35,2.35,0,0,0-1.28-.68v-.68h6.82v.68a2.34,2.34,0,0,0-1.29.68,2.52,2.52,0,0,0-.33,1.49v22.6a2.53,2.53,0,0,0,.33,1.48,2.29,2.29,0,0,0,1.29.7v.68h-6.82v-.68a2.29,2.29,0,0,0,1.28-.7A2.53,2.53,0,0,0,306.7,264.65Z" transform="translate(0 -123.86)"/><path class="cls-7" d="M330.91,254.26v10.49h17.42a2.61,2.61,0,0,0,1.5-.32,2.22,2.22,0,0,0,.66-1.29h.71v6h-.71a2.28,2.28,0,0,0-.65-1.29,2.52,2.52,0,0,0-1.49-.33H325.7v-.68a2.22,2.22,0,0,0,1.3-.7,2.63,2.63,0,0,0,.31-1.48v-22.6a2.61,2.61,0,0,0-.32-1.49,2.34,2.34,0,0,0-1.29-.68v-.68h22.48a2.48,2.48,0,0,0,1.48-.33,2.34,2.34,0,0,0,.68-1.29H351v6h-.68a2.34,2.34,0,0,0-.68-1.3,2.57,2.57,0,0,0-1.48-.32H330.91v9.56h11a2.54,2.54,0,0,0,1.49-.33,2.34,2.34,0,0,0,.67-1.29h.68v6h-.68a2.16,2.16,0,0,0-.69-1.29,2.49,2.49,0,0,0-1.47-.33Z" transform="translate(0 -123.86)"/><path class="cls-8" d="M369.37,254.69v10a2.53,2.53,0,0,0,.33,1.48,2.29,2.29,0,0,0,1.28.7v.68h-6.82v-.68a2.22,2.22,0,0,0,1.3-.7,2.63,2.63,0,0,0,.31-1.48v-22.6a2.53,2.53,0,0,0-.32-1.49,2.34,2.34,0,0,0-1.29-.68v-.68H380.9a21.77,21.77,0,0,1,4.64.4,8.53,8.53,0,0,1,3.14,1.37A7,7,0,0,1,391.6,247a6.67,6.67,0,0,1-2,5.15,10,10,0,0,1-6,2.26l7.07,11.27a2.38,2.38,0,0,0,.74.79,3.9,3.9,0,0,0,1.3.33v.68h-7v-.68c.66-.14,1-.35,1-.64a3.34,3.34,0,0,0-.58-1.21l-6.49-10.29Zm0-2.75H380.1a30.26,30.26,0,0,0,3.88-.19,6.46,6.46,0,0,0,2.21-.7,4.06,4.06,0,0,0,2-3.87,4.59,4.59,0,0,0-1.86-4q-1.71-1.24-5.81-1.24H369.37Z" transform="translate(0 -123.86)"/><path class="cls-9" d="M265.56,203.18s4.47-24.08-21-35.73C244.54,167.45,236.27,197.08,265.56,203.18Z" transform="translate(0 -123.86)"/><path class="cls-10" d="M267.05,202.29s15.42-19.1-2.64-39.48C264.41,162.81,242.87,185.27,267.05,202.29Z" transform="translate(0 -123.86)"/><path class="cls-11" d="M264.08,204s-5-24.37-35.54-24.2C228.54,179.82,235.58,210.54,264.08,204Z" transform="translate(0 -123.86)"/><path class="cls-12" d="M262.1,205.06s-16.8-20.46-42.34-13.64C219.76,191.42,237.47,219.22,262.1,205.06Z" transform="translate(0 -123.86)"/><path class="cls-13" d="M268.25,201.36s23.56-10.54,15.75-36.73C284,164.63,254.09,176.71,268.25,201.36Z" transform="translate(0 -123.86)"/><path class="cls-14" d="M308.79,233.13s5-9.59,15.89-7.15C324.68,226,319.44,238.48,308.79,233.13Z" transform="translate(0 -123.86)"/><path class="cls-15" d="M308.86,233.13s-5-9.59-15.88-7.15C293,226,298.22,238.48,308.86,233.13Z" transform="translate(0 -123.86)"/><path class="cls-16" d="M224.91,224.75s-.61-4.08,13.4-3.95C238.31,220.8,224.78,216.82,224.91,224.75Z" transform="translate(0 -123.86)"/><path class="cls-17" d="M232.77,219.05a5.2,5.2,0,0,0-2.6-1,7,7,0,0,0-6.42,3.82,4.84,4.84,0,0,1,2-1.78,11.39,11.39,0,0,1,4.37-1.38C232.12,218.57,232.77,219.05,232.77,219.05Z" transform="translate(0 -123.86)"/><path class="cls-18" d="M296.21,209.67s1.86-11.34-9.94-12.84a6.16,6.16,0,0,0-4.77,1.89c-.8.81-1.69,2.73-4.72,3.42-6.8,1.55-5.57,13.3-5.57,13.3.31-5.88,5.58-8.53,7.38-9.4C297.49,196.88,296.21,209.67,296.21,209.67Z" transform="translate(0 -123.86)"/><path class="cls-19" d="M307.34,229.15s.62-5.57-11.13-18.86c0,0-1.55-.31-6.18.31C290,210.6,297.49,210.49,307.34,229.15Z" transform="translate(0 -123.86)"/><path class="cls-20" d="M289.41,211.52a107.61,107.61,0,0,0-18.55,12.06c-5.55,4.48-16.68,1.86-27.52-1.54,0,0,12,3.24,18.24.31,5.73-2.72,8.29-4.77,12.45-6.45C278.39,214.14,284.15,214,289.41,211.52Z" transform="translate(0 -123.86)"/><path class="cls-21" d="M223.84,218.5s6.81-3.59,14.22-3.09c11.15.75,18.41-3.7,26-8.52,3.4-2.17,4.95-3.72,10.52-4.64,0,0-3.71,0-4.64,9,0,3.41,0,4.33-4.33,6.81-7.6,4.34-29.81,1.59-32.48-.14C230.91,216.46,223.84,218.5,223.84,218.5Z" transform="translate(0 -123.86)"/></svg>