<svg id="Capa_1" data-name="Capa 1" xmlns="http://www.w3.org/2000/svg" xmlns:xlink="http://www.w3.org/1999/xlink" viewBox="0 0 100 15.04"><defs><style>.cls-1{fill:url(#Degradado_sin_nombre_5);}.cls-2{fill:#fff;}</style><linearGradient id="Degradado_sin_nombre_5" x1="37.28" y1="22.03" x2="62.5" y2="-21.65" gradientUnits="userSpaceOnUse"><stop offset="0" stop-color="#cbafb4"/><stop offset="1" stop-color="#cfdff2"/></linearGradient></defs><title>Weather_Logo</title><path class="cls-1" d="M0,0S18.18,14.89,47.92,15,100,0,100,0Z"/><path class="cls-2" d="M47,4.15a4.17,4.17,0,0,1,1.22.14q.48.15.48.39a1.21,1.21,0,0,1-.12.44,2.15,2.15,0,0,1-.26.46h-.05a.05.05,0,0,1,0,0v0a.9.9,0,0,0,.14-.41.35.35,0,0,0,0-.18,1.1,1.1,0,0,0-.59-.41,2.78,2.78,0,0,0-1-.17A3.3,3.3,0,0,0,45,4.8a3.11,3.11,0,0,0-1.18,1.28A4.05,4.05,0,0,0,43.42,8a3.17,3.17,0,0,0,.28,1.37,2.14,2.14,0,0,0,.8.95,2.23,2.23,0,0,0,1.25.35A1.79,1.79,0,0,0,47,10.17a2.49,2.49,0,0,0,.71-1.23s0,0,.07,0,.05,0,.05.06a6.57,6.57,0,0,1-.3,1c-.15.36-.26.56-.33.59a4.5,4.5,0,0,1-1.59.27,3,3,0,0,1-1.44-.33,2.37,2.37,0,0,1-.93-.9,2.59,2.59,0,0,1-.33-1.3,4.28,4.28,0,0,1,.52-2A4,4,0,0,1,47,4.15Z"/><path class="cls-2" d="M52.5,3.12a.34.34,0,0,1,.27.12.49.49,0,0,1,.1.3.76.76,0,0,1-.1.36,0,0,0,0,1-.05,0l0,0a.2.2,0,0,0-.09-.21.54.54,0,0,0-.33-.08c-.55,0-1.09.41-1.65,1.23a12.19,12.19,0,0,0-1.39,2.85,8.07,8.07,0,0,0-.57,2.46c0,.21.06.31.18.31a.4.4,0,0,0,.24-.09,2.61,2.61,0,0,0,.28-.32h0a.08.08,0,0,1,0,.05v0a2,2,0,0,1-.46.52.69.69,0,0,1-.42.21.28.28,0,0,1-.22-.11.53.53,0,0,1-.08-.3,8.61,8.61,0,0,1,.7-2.62,15.63,15.63,0,0,1,1.69-3.23C51.29,3.6,51.91,3.12,52.5,3.12Z"/><path class="cls-2" d="M49.85,8.88h0a.05.05,0,0,1,0,0,0,0,0,0,1,0,0c.1-.1.24-.21.4-.34a3.81,3.81,0,0,1,.49-.3s.08,0,.08.1a7.67,7.67,0,0,0-.49,1.08,2.75,2.75,0,0,0-.22.93c0,.14.05.22.14.22a.32.32,0,0,0,.2-.08c.06-.05.15-.15.28-.29h0a.09.09,0,0,1,0,.06,0,0,0,0,1,0,0c-.33.4-.6.6-.79.6s-.27-.12-.27-.35a3,3,0,0,1,.22-1,4.52,4.52,0,0,1,.5-1A6.48,6.48,0,0,0,49.85,8.88Zm.93-1.17s-.05,0-.08,0a.29.29,0,0,1,0-.14.22.22,0,0,1,0-.13,4.82,4.82,0,0,1,.75-.8h0s0,0,0,0v0A3.55,3.55,0,0,0,50.78,7.71Z"/><path class="cls-2" d="M54.53,8.63c0-.15-.05-.22-.16-.22s-.45.2-.73.61a7,7,0,0,0-.78,1.64.18.18,0,0,1-.11.1.47.47,0,0,1-.17,0c-.07,0-.11,0-.11-.07l0,0,.16-.47c.14-.41.26-.73.34-1a2.26,2.26,0,0,0,.11-.55c0-.19-.05-.29-.17-.29s-.43.2-.7.6a7,7,0,0,0-.77,1.64.15.15,0,0,1-.09.1.42.42,0,0,1-.16,0c-.06,0-.1,0-.1-.06s0,0,0,0a14.72,14.72,0,0,0,.66-2.1l0-.11c0-.05,0-.08-.07-.08s-.23.13-.42.38c0,0,0,0-.05,0a.07.07,0,0,1,0-.05l0,0c.27-.39.52-.58.73-.58s.18.08.18.23a.38.38,0,0,1,0,.12c0,.06,0,.17-.08.34s-.08.32-.13.47a3,3,0,0,1,.6-.85,1,1,0,0,1,.64-.31.23.23,0,0,1,.2.1.37.37,0,0,1,.08.25,2.46,2.46,0,0,1-.17.88A3.41,3.41,0,0,1,54,8.47a1.06,1.06,0,0,1,.7-.32.26.26,0,0,1,.19.08.32.32,0,0,1,.07.22,1.23,1.23,0,0,1-.06.36c0,.13-.1.3-.18.49s-.15.41-.19.54a1.32,1.32,0,0,0-.06.39c0,.17,0,.26.15.26s.26-.12.46-.34c0,0,0,0,0,0a.06.06,0,0,1,0,.07,2.72,2.72,0,0,1-.37.39.67.67,0,0,1-.41.18c-.16,0-.24-.14-.24-.4a1.92,1.92,0,0,1,.08-.51,5.9,5.9,0,0,1,.2-.59s0-.14.11-.3A1.3,1.3,0,0,0,54.53,8.63Z"/><path class="cls-2" d="M57.91,10.15a0,0,0,0,1,0,0,.06.06,0,0,1,0,.06h0a2,2,0,0,1-.42.44.66.66,0,0,1-.37.15.2.2,0,0,1-.17-.13,1.06,1.06,0,0,1-.05-.34,2.25,2.25,0,0,1,.1-.66,4.58,4.58,0,0,1-.6.76,1.4,1.4,0,0,1-.59.37.37.37,0,0,1-.32-.2,1,1,0,0,1-.12-.55,1.83,1.83,0,0,1,.24-.89,2.11,2.11,0,0,1,.64-.72,1.45,1.45,0,0,1,.83-.28.94.94,0,0,1,.57.17.56.56,0,0,1,.17-.11.79.79,0,0,1,.2,0s0,0,0,.05a3.53,3.53,0,0,0-.58,1,3.14,3.14,0,0,0-.21,1,.39.39,0,0,0,0,.22s.05,0,.08,0S57.7,10.4,57.91,10.15Zm-1.8.29c.15,0,.37-.19.67-.57a5.9,5.9,0,0,0,.72-1.24.36.36,0,0,0-.19-.22A.63.63,0,0,0,57,8.33a.91.91,0,0,0-.56.2A1.45,1.45,0,0,0,56,9.1a1.94,1.94,0,0,0-.16.82.81.81,0,0,0,.08.37C56,10.39,56,10.44,56.11,10.44Z"/></svg>